<?xml version="1.0" encoding="utf-8"?>
<!-- Generator: Adobe Illustrator 24.0.0, SVG Export Plug-In . SVG Version: 6.00 Build 0)  -->
<svg version="1.1" xmlns="http://www.w3.org/2000/svg" xmlns:xlink="http://www.w3.org/1999/xlink" x="0px" y="0px"
	 viewBox="0 0 64 64" enable-background="new 0 0 64 64" xml:space="preserve">
<g id="Captions">
</g>
<g id="Icons">
	<g>
		<g>
			<path fill="#00A0C8" d="M52,60H28V9c0-0.552,0.448-1,1-1h22c0.552,0,1,0.448,1,1V60z"/>
		</g>
		<path fill="#0082AA" d="M51,8H29c-0.552,0-1,0.448-1,1h23c0.552,0,1,0.448,1,1V9C52,8.448,51.552,8,51,8z"/>
		<g>
			<path fill="#FAB400" d="M24,6v54h4V9c0-0.552,0.448-1,1-1h22c0.552,0,1,0.448,1,1v51h4V6c0-1.105-0.895-2-2-2H26
				C24.895,4,24,4.895,24,6z"/>
		</g>
		<g>
			<path fill="#0082AA" d="M47,30H33c-0.552,0-1-0.448-1-1V13c0-0.552,0.448-1,1-1h14c0.552,0,1,0.448,1,1v16
				C48,29.552,47.552,30,47,30z"/>
		</g>
		<g>
			<path fill="#0082AA" d="M47,56H33c-0.552,0-1-0.448-1-1V39c0-0.552,0.448-1,1-1h14c0.552,0,1,0.448,1,1v16
				C48,55.552,47.552,56,47,56z"/>
		</g>
		<g>
			<circle fill="#0082AA" cx="48" cy="35" r="2"/>
		</g>
		<g>
			<circle fill="#FAB400" cx="48" cy="34" r="2"/>
		</g>
		<g>
			<path fill="#0082AA" d="M44,33c0-8.837-7.163-16-16-16v32C36.837,49,44,41.837,44,33z"/>
		</g>
		<g>
			<path fill="#DC9600" d="M24,17.524v30.951C25.281,48.806,26.616,49,28,49V17C26.616,17,25.281,17.194,24,17.524z"/>
		</g>
		<g>
			<circle fill="#C80A50" cx="28" cy="32" r="16"/>
		</g>
		<g>
			<path fill="#00A0C8" d="M34,42H22c-1.105,0-2-0.895-2-2V30c0-1.105,0.895-2,2-2h12c1.105,0,2,0.895,2,2v10
				C36,41.105,35.105,42,34,42z"/>
		</g>
		<g>
			<path fill="#0082AA" d="M29,33h-9v2h4v3c0,0.552,0.448,1,1,1s1-0.448,1-1v-3h2v3c0,0.552,0.448,1,1,1s1-0.448,1-1v-4
				C30,33.448,29.552,33,29,33z"/>
		</g>
		<g>
			<path fill="#FAB400" d="M34,28h-2v-2c0-2.206-1.794-4-4-4s-4,1.794-4,4v2h-2v-2c0-3.309,2.691-6,6-6s6,2.691,6,6V28z"/>
		</g>
		<g>
			<rect x="22" y="27" fill="#DC9600" width="2" height="1"/>
		</g>
		<g>
			<rect x="32" y="27" fill="#DC9600" width="2" height="1"/>
		</g>
		<path fill="#0A5078" d="M29,32H15.916c-0.477-2.834-2.948-5-5.916-5c-3.309,0-6,2.691-6,6s2.691,6,6,6
			c2.968,0,5.439-2.166,5.916-5H24v3c0,0.552,0.448,1,1,1s1-0.448,1-1v-3h2v3c0,0.552,0.448,1,1,1s1-0.448,1-1v-4
			C30,32.448,29.552,32,29,32z M10,37c-2.206,0-4-1.794-4-4s1.794-4,4-4s4,1.794,4,4S12.206,37,10,37z"/>
	</g>
</g>
</svg>
